<mxfile host="Electron" agent="Mozilla/5.0 (Windows NT 10.0; Win64; x64) AppleWebKit/537.36 (KHTML, like Gecko) draw.io/24.7.5 Chrome/126.0.6478.183 Electron/31.3.0 Safari/537.36" version="24.7.5" pages="4">
  <diagram name="支持當前生產高可用" id="arwf7rsWSvYSUHz1F4jU">
    <mxGraphModel dx="1434" dy="844" grid="1" gridSize="10" guides="1" tooltips="1" connect="1" arrows="1" fold="1" page="1" pageScale="1" pageWidth="1169" pageHeight="827" math="0" shadow="0">
      <root>
        <mxCell id="0" />
        <mxCell id="1" parent="0" />
        <mxCell id="touXT2A2MHFnHoGlf8Bf-5" value="WebAPI 1" style="sketch=0;pointerEvents=1;shadow=0;dashed=0;html=1;strokeColor=none;fillColor=#505050;labelPosition=center;verticalLabelPosition=bottom;verticalAlign=top;outlineConnect=0;align=center;shape=mxgraph.office.servers.web_server_blue;fontSize=24;" parent="1" vertex="1">
          <mxGeometry x="252" y="260" width="48" height="57" as="geometry" />
        </mxCell>
        <mxCell id="touXT2A2MHFnHoGlf8Bf-7" value="&lt;span style=&quot;font-size: 24px;&quot;&gt;Worker 1&lt;/span&gt;" style="outlineConnect=0;dashed=0;verticalLabelPosition=bottom;verticalAlign=top;align=center;html=1;shape=mxgraph.aws3.worker;fillColor=#D9A741;gradientColor=none;" parent="1" vertex="1">
          <mxGeometry x="240" y="80" width="60" height="63" as="geometry" />
        </mxCell>
        <mxCell id="touXT2A2MHFnHoGlf8Bf-12" style="edgeStyle=orthogonalEdgeStyle;rounded=0;orthogonalLoop=1;jettySize=auto;html=1;" parent="1" source="touXT2A2MHFnHoGlf8Bf-9" edge="1">
          <mxGeometry relative="1" as="geometry">
            <mxPoint x="276" y="360" as="targetPoint" />
          </mxGeometry>
        </mxCell>
        <mxCell id="touXT2A2MHFnHoGlf8Bf-9" value="&lt;span style=&quot;font-size: 24px;&quot;&gt;WebPage 1&lt;/span&gt;" style="verticalLabelPosition=bottom;aspect=fixed;html=1;shape=mxgraph.salesforce.web2;" parent="1" vertex="1">
          <mxGeometry x="246" y="440" width="60" height="60" as="geometry" />
        </mxCell>
        <mxCell id="touXT2A2MHFnHoGlf8Bf-16" value="WebAPI 2" style="sketch=0;pointerEvents=1;shadow=0;dashed=0;html=1;strokeColor=none;fillColor=#505050;labelPosition=center;verticalLabelPosition=bottom;verticalAlign=top;outlineConnect=0;align=center;shape=mxgraph.office.servers.web_server_blue;fontSize=24;" parent="1" vertex="1">
          <mxGeometry x="586" y="260" width="48" height="57" as="geometry" />
        </mxCell>
        <mxCell id="touXT2A2MHFnHoGlf8Bf-17" style="edgeStyle=orthogonalEdgeStyle;rounded=0;orthogonalLoop=1;jettySize=auto;html=1;" parent="1" source="touXT2A2MHFnHoGlf8Bf-18" edge="1">
          <mxGeometry relative="1" as="geometry">
            <mxPoint x="610" y="360" as="targetPoint" />
          </mxGeometry>
        </mxCell>
        <mxCell id="touXT2A2MHFnHoGlf8Bf-18" value="&lt;span style=&quot;font-size: 24px;&quot;&gt;WebPage 2&lt;/span&gt;" style="verticalLabelPosition=bottom;aspect=fixed;html=1;shape=mxgraph.salesforce.web2;" parent="1" vertex="1">
          <mxGeometry x="580" y="440" width="60" height="60" as="geometry" />
        </mxCell>
        <mxCell id="touXT2A2MHFnHoGlf8Bf-21" value="&lt;span style=&quot;font-size: 24px;&quot;&gt;Worker 2&lt;/span&gt;" style="outlineConnect=0;dashed=0;verticalLabelPosition=bottom;verticalAlign=top;align=center;html=1;shape=mxgraph.aws3.worker;fillColor=#D9A741;gradientColor=none;" parent="1" vertex="1">
          <mxGeometry x="574" y="80" width="60" height="63" as="geometry" />
        </mxCell>
        <mxCell id="touXT2A2MHFnHoGlf8Bf-22" value="" style="image;aspect=fixed;perimeter=ellipsePerimeter;html=1;align=center;shadow=0;dashed=0;spacingTop=3;image=img/lib/active_directory/generic_server.svg;fontStyle=1" parent="1" vertex="1">
          <mxGeometry x="225.6" y="570" width="100.8" height="180" as="geometry" />
        </mxCell>
      </root>
    </mxGraphModel>
  </diagram>
  <diagram id="zGulmCbrl5WKnLMLyR-G" name="第 2 页">
    <mxGraphModel dx="1434" dy="844" grid="1" gridSize="10" guides="1" tooltips="1" connect="1" arrows="1" fold="1" page="1" pageScale="1" pageWidth="1169" pageHeight="827" math="0" shadow="0">
      <root>
        <mxCell id="0" />
        <mxCell id="1" parent="0" />
        <mxCell id="KYfs4C4D3kgQdrwAm8qE-15" value="" style="rounded=0;whiteSpace=wrap;html=1;" vertex="1" parent="1">
          <mxGeometry x="400" y="160" width="560" height="280" as="geometry" />
        </mxCell>
        <mxCell id="KYfs4C4D3kgQdrwAm8qE-4" value="" style="rounded=0;whiteSpace=wrap;html=1;" vertex="1" parent="1">
          <mxGeometry x="670" y="226.75" width="250" height="120" as="geometry" />
        </mxCell>
        <mxCell id="KYfs4C4D3kgQdrwAm8qE-8" value="&lt;div&gt;&lt;/div&gt;" style="rounded=0;whiteSpace=wrap;html=1;dashed=1;" vertex="1" parent="1">
          <mxGeometry x="820" y="240" width="80" height="60" as="geometry" />
        </mxCell>
        <mxCell id="KYfs4C4D3kgQdrwAm8qE-1" value="&lt;pre style=&quot;text-align: start;&quot;&gt;&lt;b style=&quot;background-color: initial; font-family: Helvetica; white-space-collapse: collapse;&quot;&gt;192.168.242.76&lt;/b&gt;&lt;br&gt;&lt;/pre&gt;" style="points=[[0.35,0,0],[0.98,0.51,0],[1,0.71,0],[0.67,1,0],[0,0.795,0],[0,0.65,0]];verticalLabelPosition=bottom;sketch=0;html=1;verticalAlign=top;aspect=fixed;align=center;pointerEvents=1;shape=mxgraph.cisco19.user;fillColor=#005073;strokeColor=none;" vertex="1" parent="1">
          <mxGeometry x="470" y="266.75" width="80" height="80" as="geometry" />
        </mxCell>
        <mxCell id="KYfs4C4D3kgQdrwAm8qE-2" value="&lt;div&gt;&lt;b&gt;&lt;br&gt;&lt;/b&gt;&lt;/div&gt;&lt;b&gt;192.168.51.93&lt;/b&gt;" style="image;points=[];aspect=fixed;html=1;align=center;shadow=0;dashed=0;image=img/lib/allied_telesis/computer_and_terminals/Server_Desktop.svg;" vertex="1" parent="1">
          <mxGeometry x="610" y="253.25" width="73.76" height="93.5" as="geometry" />
        </mxCell>
        <mxCell id="KYfs4C4D3kgQdrwAm8qE-3" value="" style="image;sketch=0;aspect=fixed;html=1;points=[];align=center;fontSize=12;image=img/lib/mscae/Docker.svg;" vertex="1" parent="1">
          <mxGeometry x="835" y="249.5" width="50" height="41" as="geometry" />
        </mxCell>
        <mxCell id="KYfs4C4D3kgQdrwAm8qE-6" value="&lt;div&gt;8889 : 8888&lt;/div&gt;" style="rounded=0;whiteSpace=wrap;html=1;dashed=1;" vertex="1" parent="1">
          <mxGeometry x="695" y="300" width="70" height="30" as="geometry" />
        </mxCell>
        <mxCell id="KYfs4C4D3kgQdrwAm8qE-7" value="&lt;div&gt;&lt;span style=&quot;background-color: initial;&quot;&gt;8889:8080&lt;/span&gt;&lt;br&gt;&lt;/div&gt;" style="rounded=0;whiteSpace=wrap;html=1;dashed=1;" vertex="1" parent="1">
          <mxGeometry x="820" y="300" width="80" height="30" as="geometry" />
        </mxCell>
        <mxCell id="KYfs4C4D3kgQdrwAm8qE-9" value="&lt;font style=&quot;font-size: 24px;&quot;&gt;Nginx&lt;/font&gt;" style="rounded=0;whiteSpace=wrap;html=1;dashed=1;" vertex="1" parent="1">
          <mxGeometry x="695" y="240" width="70" height="60" as="geometry" />
        </mxCell>
        <mxCell id="KYfs4C4D3kgQdrwAm8qE-11" style="edgeStyle=orthogonalEdgeStyle;rounded=0;orthogonalLoop=1;jettySize=auto;html=1;entryX=0;entryY=0.5;entryDx=0;entryDy=0;endArrow=oval;endFill=1;startArrow=oval;startFill=1;exitX=1;exitY=0.5;exitDx=0;exitDy=0;" edge="1" parent="1" source="KYfs4C4D3kgQdrwAm8qE-9" target="KYfs4C4D3kgQdrwAm8qE-8">
          <mxGeometry relative="1" as="geometry" />
        </mxCell>
      </root>
    </mxGraphModel>
  </diagram>
  <diagram id="KrfcfnSSHeHHZDYd5QUB" name="第 3 页_透過代理_">
    <mxGraphModel dx="1434" dy="844" grid="1" gridSize="10" guides="1" tooltips="1" connect="1" arrows="1" fold="1" page="1" pageScale="1" pageWidth="1169" pageHeight="827" math="0" shadow="0">
      <root>
        <mxCell id="0" />
        <mxCell id="1" parent="0" />
        <mxCell id="AXKhmXFUYXT3_0Bz550S-1" value="" style="rounded=0;whiteSpace=wrap;html=1;" vertex="1" parent="1">
          <mxGeometry x="400" y="160" width="560" height="280" as="geometry" />
        </mxCell>
        <mxCell id="AXKhmXFUYXT3_0Bz550S-2" value="" style="rounded=0;whiteSpace=wrap;html=1;" vertex="1" parent="1">
          <mxGeometry x="670" y="226.75" width="250" height="120" as="geometry" />
        </mxCell>
        <mxCell id="AXKhmXFUYXT3_0Bz550S-3" value="&lt;div&gt;&lt;/div&gt;" style="rounded=0;whiteSpace=wrap;html=1;dashed=1;" vertex="1" parent="1">
          <mxGeometry x="820" y="240" width="80" height="60" as="geometry" />
        </mxCell>
        <mxCell id="AXKhmXFUYXT3_0Bz550S-12" style="edgeStyle=orthogonalEdgeStyle;rounded=0;orthogonalLoop=1;jettySize=auto;html=1;entryX=0;entryY=0;entryDx=0;entryDy=0;" edge="1" parent="1" source="AXKhmXFUYXT3_0Bz550S-4" target="AXKhmXFUYXT3_0Bz550S-8">
          <mxGeometry relative="1" as="geometry">
            <Array as="points">
              <mxPoint x="623" y="307" />
              <mxPoint x="623" y="410" />
              <mxPoint x="730" y="410" />
              <mxPoint x="730" y="300" />
            </Array>
          </mxGeometry>
        </mxCell>
        <mxCell id="AXKhmXFUYXT3_0Bz550S-4" value="&lt;pre style=&quot;text-align: start;&quot;&gt;&lt;b style=&quot;background-color: initial; font-family: Helvetica; white-space-collapse: collapse;&quot;&gt;192.168.242.76&lt;/b&gt;&lt;br&gt;&lt;/pre&gt;" style="points=[[0.35,0,0],[0.98,0.51,0],[1,0.71,0],[0.67,1,0],[0,0.795,0],[0,0.65,0]];verticalLabelPosition=bottom;sketch=0;html=1;verticalAlign=top;aspect=fixed;align=center;pointerEvents=1;shape=mxgraph.cisco19.user;fillColor=#005073;strokeColor=none;" vertex="1" parent="1">
          <mxGeometry x="470" y="266.75" width="80" height="80" as="geometry" />
        </mxCell>
        <mxCell id="AXKhmXFUYXT3_0Bz550S-5" value="&lt;div&gt;&lt;b&gt;&lt;br&gt;&lt;/b&gt;&lt;/div&gt;&lt;b&gt;192.168.51.93&lt;/b&gt;" style="image;points=[];aspect=fixed;html=1;align=center;shadow=0;dashed=0;image=img/lib/allied_telesis/computer_and_terminals/Server_Desktop.svg;" vertex="1" parent="1">
          <mxGeometry x="610" y="253.25" width="73.76" height="93.5" as="geometry" />
        </mxCell>
        <mxCell id="AXKhmXFUYXT3_0Bz550S-6" value="" style="image;sketch=0;aspect=fixed;html=1;points=[];align=center;fontSize=12;image=img/lib/mscae/Docker.svg;" vertex="1" parent="1">
          <mxGeometry x="835" y="249.5" width="50" height="41" as="geometry" />
        </mxCell>
        <mxCell id="AXKhmXFUYXT3_0Bz550S-7" value="&lt;div&gt;8889 : 8888&lt;/div&gt;" style="rounded=0;whiteSpace=wrap;html=1;dashed=1;" vertex="1" parent="1">
          <mxGeometry x="695" y="300" width="70" height="30" as="geometry" />
        </mxCell>
        <mxCell id="AXKhmXFUYXT3_0Bz550S-8" value="&lt;div&gt;&lt;span style=&quot;background-color: initial;&quot;&gt;8889:8080&lt;/span&gt;&lt;br&gt;&lt;/div&gt;" style="rounded=0;whiteSpace=wrap;html=1;dashed=1;" vertex="1" parent="1">
          <mxGeometry x="820" y="300" width="80" height="30" as="geometry" />
        </mxCell>
        <mxCell id="AXKhmXFUYXT3_0Bz550S-9" value="&lt;font style=&quot;font-size: 24px;&quot;&gt;Nginx&lt;/font&gt;" style="rounded=0;whiteSpace=wrap;html=1;dashed=1;" vertex="1" parent="1">
          <mxGeometry x="695" y="240" width="70" height="60" as="geometry" />
        </mxCell>
        <mxCell id="AXKhmXFUYXT3_0Bz550S-10" style="edgeStyle=orthogonalEdgeStyle;rounded=0;orthogonalLoop=1;jettySize=auto;html=1;entryX=0;entryY=0.5;entryDx=0;entryDy=0;endArrow=oval;endFill=1;startArrow=oval;startFill=1;exitX=1;exitY=0.5;exitDx=0;exitDy=0;" edge="1" parent="1" source="AXKhmXFUYXT3_0Bz550S-9" target="AXKhmXFUYXT3_0Bz550S-3">
          <mxGeometry relative="1" as="geometry" />
        </mxCell>
      </root>
    </mxGraphModel>
  </diagram>
  <diagram name="第 4 页_直連" id="HWZ3zxeFquX1OvPyMGJU">
    <mxGraphModel dx="1434" dy="844" grid="1" gridSize="10" guides="1" tooltips="1" connect="1" arrows="1" fold="1" page="1" pageScale="1" pageWidth="1169" pageHeight="827" math="0" shadow="0">
      <root>
        <mxCell id="KWLJXFZz0Tgs1la-iiDu-0" />
        <mxCell id="KWLJXFZz0Tgs1la-iiDu-1" parent="KWLJXFZz0Tgs1la-iiDu-0" />
        <mxCell id="KWLJXFZz0Tgs1la-iiDu-2" value="" style="rounded=0;whiteSpace=wrap;html=1;" vertex="1" parent="KWLJXFZz0Tgs1la-iiDu-1">
          <mxGeometry x="400" y="160" width="560" height="280" as="geometry" />
        </mxCell>
        <mxCell id="KWLJXFZz0Tgs1la-iiDu-3" value="" style="rounded=0;whiteSpace=wrap;html=1;" vertex="1" parent="KWLJXFZz0Tgs1la-iiDu-1">
          <mxGeometry x="670" y="226.75" width="250" height="120" as="geometry" />
        </mxCell>
        <mxCell id="KWLJXFZz0Tgs1la-iiDu-4" value="&lt;div&gt;&lt;/div&gt;" style="rounded=0;whiteSpace=wrap;html=1;dashed=1;" vertex="1" parent="KWLJXFZz0Tgs1la-iiDu-1">
          <mxGeometry x="820" y="240" width="80" height="60" as="geometry" />
        </mxCell>
        <mxCell id="KWLJXFZz0Tgs1la-iiDu-5" style="edgeStyle=orthogonalEdgeStyle;rounded=0;orthogonalLoop=1;jettySize=auto;html=1;entryX=0.5;entryY=1;entryDx=0;entryDy=0;" edge="1" parent="KWLJXFZz0Tgs1la-iiDu-1" source="KWLJXFZz0Tgs1la-iiDu-6" target="KWLJXFZz0Tgs1la-iiDu-10">
          <mxGeometry relative="1" as="geometry">
            <Array as="points">
              <mxPoint x="623" y="307" />
              <mxPoint x="623" y="410" />
              <mxPoint x="860" y="410" />
            </Array>
          </mxGeometry>
        </mxCell>
        <mxCell id="KWLJXFZz0Tgs1la-iiDu-6" value="&lt;pre style=&quot;text-align: start;&quot;&gt;&lt;b style=&quot;background-color: initial; font-family: Helvetica; white-space-collapse: collapse;&quot;&gt;192.168.242.76&lt;/b&gt;&lt;br&gt;&lt;/pre&gt;" style="points=[[0.35,0,0],[0.98,0.51,0],[1,0.71,0],[0.67,1,0],[0,0.795,0],[0,0.65,0]];verticalLabelPosition=bottom;sketch=0;html=1;verticalAlign=top;aspect=fixed;align=center;pointerEvents=1;shape=mxgraph.cisco19.user;fillColor=#005073;strokeColor=none;" vertex="1" parent="KWLJXFZz0Tgs1la-iiDu-1">
          <mxGeometry x="470" y="266.75" width="80" height="80" as="geometry" />
        </mxCell>
        <mxCell id="KWLJXFZz0Tgs1la-iiDu-7" value="&lt;div&gt;&lt;b&gt;&lt;br&gt;&lt;/b&gt;&lt;/div&gt;&lt;b&gt;192.168.51.93&lt;/b&gt;" style="image;points=[];aspect=fixed;html=1;align=center;shadow=0;dashed=0;image=img/lib/allied_telesis/computer_and_terminals/Server_Desktop.svg;" vertex="1" parent="KWLJXFZz0Tgs1la-iiDu-1">
          <mxGeometry x="610" y="253.25" width="73.76" height="93.5" as="geometry" />
        </mxCell>
        <mxCell id="KWLJXFZz0Tgs1la-iiDu-8" value="" style="image;sketch=0;aspect=fixed;html=1;points=[];align=center;fontSize=12;image=img/lib/mscae/Docker.svg;" vertex="1" parent="KWLJXFZz0Tgs1la-iiDu-1">
          <mxGeometry x="835" y="249.5" width="50" height="41" as="geometry" />
        </mxCell>
        <mxCell id="KWLJXFZz0Tgs1la-iiDu-9" value="&lt;div&gt;8889 : 8888&lt;/div&gt;" style="rounded=0;whiteSpace=wrap;html=1;dashed=1;" vertex="1" parent="KWLJXFZz0Tgs1la-iiDu-1">
          <mxGeometry x="695" y="300" width="70" height="30" as="geometry" />
        </mxCell>
        <mxCell id="KWLJXFZz0Tgs1la-iiDu-10" value="&lt;div&gt;&lt;span style=&quot;background-color: initial;&quot;&gt;8889:8080&lt;/span&gt;&lt;br&gt;&lt;/div&gt;" style="rounded=0;whiteSpace=wrap;html=1;dashed=1;" vertex="1" parent="KWLJXFZz0Tgs1la-iiDu-1">
          <mxGeometry x="820" y="300" width="80" height="30" as="geometry" />
        </mxCell>
        <mxCell id="KWLJXFZz0Tgs1la-iiDu-11" value="&lt;font style=&quot;font-size: 24px;&quot;&gt;Nginx&lt;/font&gt;" style="rounded=0;whiteSpace=wrap;html=1;dashed=1;" vertex="1" parent="KWLJXFZz0Tgs1la-iiDu-1">
          <mxGeometry x="695" y="240" width="70" height="60" as="geometry" />
        </mxCell>
        <mxCell id="KWLJXFZz0Tgs1la-iiDu-12" style="edgeStyle=orthogonalEdgeStyle;rounded=0;orthogonalLoop=1;jettySize=auto;html=1;entryX=0;entryY=0.5;entryDx=0;entryDy=0;endArrow=oval;endFill=1;startArrow=oval;startFill=1;exitX=1;exitY=0.5;exitDx=0;exitDy=0;" edge="1" parent="KWLJXFZz0Tgs1la-iiDu-1" source="KWLJXFZz0Tgs1la-iiDu-11" target="KWLJXFZz0Tgs1la-iiDu-4">
          <mxGeometry relative="1" as="geometry" />
        </mxCell>
      </root>
    </mxGraphModel>
  </diagram>
</mxfile>
